<?xml version="1.0" encoding="utf-8"?>
<svg version="1.1" baseProfile="full" xmlns="http://www.w3.org/2000/svg" xmlns:xlink="http://www.w3.org/1999/xlink" xmlns:ev="http://www.w3.org/2001/xml-events" xml:space="preserve" x="0px" y="0px" width="33px" height="25px"  viewBox="0 0 33px 25px" preserveAspectRatio="none" shape-rendering="geometricPrecision"><path xmlns="http://www.w3.org/2000/svg" fill="rgb(176, 235, 255)" d="M29.700,25.000 L16.500,25.000 L3.300,25.000 C1.477,25.000 -0.000,23.524 -0.000,21.702 L-0.000,3.298 C-0.000,1.476 1.477,-0.000 3.300,-0.000 L16.500,-0.000 L29.700,-0.000 C31.523,-0.000 33.000,1.476 33.000,3.298 L33.000,21.702 C33.000,23.524 31.523,25.000 29.700,25.000 ZM3.722,23.696 L16.500,23.696 L29.278,23.696 C29.692,23.696 30.082,23.593 30.424,23.413 L20.691,14.463 L20.107,15.107 C20.107,15.107 18.941,16.683 16.500,16.716 C14.059,16.683 12.893,15.107 12.893,15.107 L12.309,14.463 L2.576,23.413 C2.918,23.593 3.308,23.696 3.722,23.696 ZM1.266,3.758 L1.266,21.242 C1.266,21.686 1.385,22.102 1.591,22.462 L11.358,13.459 L11.402,13.464 L1.555,2.603 C1.371,2.947 1.266,3.340 1.266,3.758 ZM29.278,1.304 L16.500,1.304 L3.722,1.304 C3.295,1.304 2.893,1.413 2.543,1.605 L13.584,13.842 C13.584,13.842 14.795,15.235 16.500,15.296 C18.205,15.235 19.416,13.842 19.416,13.842 L30.457,1.605 C30.107,1.413 29.705,1.304 29.278,1.304 ZM31.734,3.758 C31.734,3.340 31.629,2.947 31.445,2.603 L21.598,13.464 L21.642,13.459 L31.409,22.462 C31.615,22.102 31.734,21.686 31.734,21.242 L31.734,3.758 Z"/></svg>