<?xml version="1.0" encoding="utf-8"?>
<svg version="1.1" baseProfile="full" xmlns="http://www.w3.org/2000/svg" xmlns:xlink="http://www.w3.org/1999/xlink" xmlns:ev="http://www.w3.org/2001/xml-events" xml:space="preserve" x="0px" y="0px" width="27px" height="27px"  viewBox="0 0 27px 27px" preserveAspectRatio="none" shape-rendering="geometricPrecision"><path xmlns="http://www.w3.org/2000/svg" fill="rgb(176, 235, 255)" d="M26.764,14.893 C26.449,15.208 25.938,15.208 25.623,14.892 C25.424,14.694 25.351,14.417 25.403,14.161 C25.411,13.236 25.238,9.057 21.627,5.375 C21.628,5.374 21.628,5.374 21.628,5.373 C17.947,1.761 13.769,1.589 12.845,1.597 C12.589,1.649 12.312,1.576 12.113,1.377 C11.798,1.062 11.798,0.551 12.113,0.236 C12.277,0.071 12.495,-0.007 12.710,-0.001 C12.770,0.001 12.829,0.010 12.887,0.025 C18.709,-0.166 22.770,4.232 22.770,4.232 C22.770,4.232 22.769,4.232 22.768,4.233 C22.768,4.233 27.164,8.296 26.974,14.118 C26.989,14.177 26.998,14.236 27.000,14.296 C27.007,14.511 26.928,14.728 26.764,14.893 ZM12.576,4.388 C13.041,4.370 16.593,4.335 19.638,7.365 C22.666,10.411 22.631,13.964 22.613,14.429 C22.620,14.649 22.539,14.871 22.372,15.038 C22.049,15.361 21.526,15.361 21.204,15.038 C20.989,14.824 20.918,14.520 20.989,14.246 C20.899,10.653 18.523,8.480 18.523,8.480 C18.523,8.480 16.351,6.103 12.759,6.014 C12.485,6.085 12.182,6.013 11.967,5.798 C11.645,5.476 11.645,4.953 11.967,4.630 C12.135,4.462 12.357,4.382 12.576,4.388 ZM17.886,14.959 C17.564,15.281 17.041,15.281 16.718,14.959 C16.578,14.819 16.511,14.639 16.492,14.456 C16.487,14.455 16.484,14.455 16.479,14.454 C16.532,12.662 15.365,11.640 15.365,11.640 C15.365,11.640 14.343,10.471 12.551,10.525 C12.550,10.520 12.550,10.516 12.549,10.512 C12.366,10.493 12.187,10.426 12.047,10.286 C11.724,9.963 11.724,9.440 12.047,9.117 C12.215,8.949 12.437,8.869 12.657,8.876 C12.661,8.876 12.664,8.878 12.668,8.878 C12.726,8.875 14.721,8.777 16.532,10.471 C18.226,12.283 18.128,14.279 18.125,14.337 C18.125,14.341 18.127,14.344 18.128,14.348 C18.135,14.568 18.054,14.791 17.886,14.959 ZM20.106,18.143 C22.412,16.896 24.136,18.567 24.136,18.567 C24.136,18.567 25.196,19.602 25.647,20.079 C26.098,20.557 28.060,23.501 24.162,25.596 C15.226,30.557 6.238,20.770 6.238,20.770 L6.234,20.774 C6.234,20.774 -3.560,11.772 1.404,2.824 C3.500,-1.079 6.447,0.886 6.924,1.337 C7.402,1.789 8.437,2.851 8.437,2.851 C8.437,2.851 10.109,4.577 8.862,6.887 C7.614,9.197 7.150,13.352 10.375,16.632 C10.375,16.632 10.375,16.632 10.375,16.631 C13.649,19.854 17.799,19.390 20.106,18.143 ZM9.235,17.772 C9.234,17.773 9.233,17.773 9.233,17.773 C9.233,17.773 4.602,13.512 6.951,7.206 C6.951,7.206 7.216,6.604 7.482,6.090 C7.747,5.577 7.951,4.595 7.269,3.913 C6.588,3.232 5.889,2.532 5.889,2.532 C5.889,2.532 5.146,1.930 4.429,2.134 C3.713,2.338 3.262,2.647 2.890,3.409 C2.518,4.170 -1.543,10.604 7.376,19.632 L7.379,19.629 C16.393,28.541 22.819,24.482 23.579,24.111 C24.339,23.740 24.648,23.289 24.851,22.572 C25.055,21.856 24.454,21.114 24.454,21.114 C24.454,21.114 23.756,20.415 23.075,19.734 C22.395,19.054 21.414,19.257 20.901,19.522 C20.388,19.788 19.787,20.053 19.787,20.053 C13.490,22.401 9.235,17.772 9.235,17.772 Z"/></svg>