<?xml version="1.0" encoding="utf-8"?>
<svg version="1.1" baseProfile="full" xmlns="http://www.w3.org/2000/svg" xmlns:xlink="http://www.w3.org/1999/xlink" xmlns:ev="http://www.w3.org/2001/xml-events" xml:space="preserve" x="0px" y="0px" width="26px" height="33px"  viewBox="0 0 26px 33px" preserveAspectRatio="none" shape-rendering="geometricPrecision"><path xmlns="http://www.w3.org/2000/svg" fill="rgb(176, 235, 255)" d="M25.562,15.136 C24.169,19.439 19.621,26.014 13.754,32.496 C13.350,32.899 13.093,33.394 12.250,32.496 C11.406,31.599 5.887,25.244 3.375,21.032 C0.863,16.820 0.056,15.007 0.001,12.242 C-0.054,9.477 1.413,5.888 4.219,3.379 C7.024,0.870 10.398,0.101 12.690,0.009 C12.690,0.009 20.556,-0.540 24.572,6.931 C24.572,6.931 26.956,10.832 25.562,15.136 ZM23.462,7.542 C19.826,0.725 12.703,1.226 12.703,1.226 C10.627,1.310 7.572,2.011 5.031,4.300 C2.491,6.589 1.163,9.864 1.212,12.387 C1.262,14.909 1.993,16.563 4.268,20.406 C6.542,24.249 11.540,30.046 12.304,30.865 C13.068,31.684 13.300,31.232 13.666,30.865 C18.979,24.951 23.097,18.953 24.359,15.026 C25.621,11.100 23.462,7.542 23.462,7.542 ZM13.002,20.007 C8.738,20.007 5.282,16.555 5.282,12.297 C5.282,8.039 8.738,4.587 13.002,4.587 C17.265,4.587 20.721,8.039 20.721,12.297 C20.721,16.555 17.265,20.007 13.002,20.007 ZM12.983,5.796 C9.378,5.796 6.456,8.715 6.456,12.315 C6.456,15.916 9.378,18.835 12.983,18.835 C16.589,18.835 19.511,15.916 19.511,12.315 C19.511,8.715 16.589,5.796 12.983,5.796 Z"/></svg>